<svg xmlns="http://www.w3.org/2000/svg" xmlns:xlink="http://www.w3.org/1999/xlink" width="1940" zoomAndPan="magnify" viewBox="0 0 1455 374.999991" height="500" preserveAspectRatio="xMidYMid meet" version="1.0"><defs><g/></defs><path stroke-linecap="butt" transform="matrix(0.75, 0, 0, 0.75, -23.625144, 262.229632)" fill="none" stroke-linejoin="miter" d="M 0.000191931 16.501116 L 2003.000323 16.501116 " stroke="#00a9a5" stroke-width="33" stroke-opacity="1" stroke-miterlimit="4"/><g fill="#0d090a" fill-opacity="1"><g transform="translate(50.954805, 262.768753)"><g><path d="M 192.03125 -175.921875 C 192.03125 -170.929688 191.597656 -165.054688 190.734375 -158.296875 C 189.867188 -151.535156 188.40625 -143.769531 186.34375 -135 C 184.289062 -126.226562 181.507812 -116.421875 178 -105.578125 C 174.5 -94.742188 170.160156 -82.710938 164.984375 -69.484375 C 159.328125 -55.097656 153.550781 -42.363281 147.65625 -31.28125 C 141.757812 -20.207031 136.242188 -10.832031 131.109375 -3.15625 C 125.984375 4.507812 121.5 10.453125 117.65625 14.671875 C 113.820312 18.890625 111.140625 21.382812 109.609375 22.15625 C 107.117188 23.300781 104.382812 23.875 101.40625 23.875 C 98.914062 23.875 96.375 23.488281 93.78125 22.71875 C 91.195312 21.957031 88.992188 20.757812 87.171875 19.125 C 86.015625 18.164062 84.117188 15.71875 81.484375 11.78125 C 78.847656 7.851562 76.039062 2.269531 73.0625 -4.96875 C 70.09375 -12.207031 67.21875 -21.242188 64.4375 -32.078125 C 61.65625 -42.910156 59.59375 -55.804688 58.25 -70.765625 C 54.132812 -65.398438 49.628906 -59.644531 44.734375 -53.5 C 39.847656 -47.363281 34.863281 -41.25 29.78125 -35.15625 C 24.695312 -29.070312 19.632812 -23.128906 14.59375 -17.328125 C 9.5625 -11.523438 4.835938 -6.226562 0.421875 -1.4375 C -3.984375 3.351562 -7.910156 7.5 -11.359375 11 C -14.816406 14.5 -17.503906 17.019531 -19.421875 18.5625 C -20.472656 17.601562 -21.691406 16.453125 -23.078125 15.109375 C -24.472656 13.765625 -25.910156 12.347656 -27.390625 10.859375 C -28.878906 9.367188 -30.316406 7.859375 -31.703125 6.328125 C -33.097656 4.796875 -34.328125 3.359375 -35.390625 2.015625 C -21.390625 -10.253906 -7.195312 -27.5625 7.1875 -49.90625 C 21.570312 -72.257812 35.285156 -99.207031 48.328125 -130.75 C 49.960938 -129.40625 51.5 -128.0625 52.9375 -126.71875 C 54.375 -125.382812 55.765625 -124.046875 57.109375 -122.703125 C 57.492188 -136.128906 57.945312 -148.066406 58.46875 -158.515625 C 59 -168.972656 59.597656 -178.203125 60.265625 -186.203125 C 60.941406 -194.210938 61.585938 -201.09375 62.203125 -206.84375 C 62.828125 -212.601562 63.425781 -217.492188 64 -221.515625 C 64.582031 -225.546875 65.085938 -228.832031 65.515625 -231.375 C 65.953125 -233.914062 66.3125 -235.953125 66.59375 -237.484375 C 67.550781 -236.617188 68.988281 -235.25 70.90625 -233.375 C 72.832031 -231.507812 74.992188 -229.425781 77.390625 -227.125 C 79.785156 -224.820312 82.300781 -222.398438 84.9375 -219.859375 C 87.570312 -217.316406 90.0625 -214.894531 92.40625 -212.59375 C 94.757812 -210.300781 96.820312 -208.242188 98.59375 -206.421875 C 100.375 -204.597656 101.601562 -203.253906 102.28125 -202.390625 C 101.03125 -197.597656 99.613281 -192.007812 98.03125 -185.625 C 96.445312 -179.25 94.957031 -171.769531 93.5625 -163.1875 C 92.175781 -154.601562 91.003906 -144.796875 90.046875 -133.765625 C 89.085938 -122.742188 88.609375 -110.1875 88.609375 -96.09375 C 88.703125 -82.945312 89.179688 -70.238281 90.046875 -57.96875 C 90.429688 -52.695312 90.882812 -47.253906 91.40625 -41.640625 C 91.9375 -36.035156 92.609375 -30.519531 93.421875 -25.09375 C 94.242188 -19.675781 95.226562 -14.472656 96.375 -9.484375 C 97.53125 -4.503906 98.828125 -0.046875 100.265625 3.890625 C 112.242188 -15.867188 121.804688 -35 128.953125 -53.5 C 136.097656 -72.007812 141.585938 -90.132812 145.421875 -107.875 C 149.265625 -125.625 151.757812 -143.101562 152.90625 -160.3125 C 154.0625 -177.53125 154.640625 -194.722656 154.640625 -211.890625 L 154.640625 -221.8125 C 159.617188 -217.96875 164.363281 -213.695312 168.875 -209 C 173.382812 -204.300781 177.363281 -199.84375 180.8125 -195.625 C 184.84375 -190.738281 188.582031 -185.800781 192.03125 -180.8125 Z M 192.03125 -175.921875 "/></g></g><g transform="translate(246.293824, 262.768753)"><g><path d="M 2.59375 7.90625 C 1.15625 7.90625 -0.664062 7.398438 -2.875 6.390625 C -5.082031 5.390625 -7.191406 4.144531 -9.203125 2.65625 C -11.222656 1.175781 -12.953125 -0.472656 -14.390625 -2.296875 C -15.828125 -4.117188 -16.546875 -5.894531 -16.546875 -7.625 C -15.585938 -11.84375 -14.289062 -16.679688 -12.65625 -22.140625 C -11.03125 -27.609375 -9.28125 -33.171875 -7.40625 -38.828125 C -5.539062 -44.492188 -3.578125 -50.035156 -1.515625 -55.453125 C 0.546875 -60.867188 2.414062 -65.6875 4.09375 -69.90625 C 5.769531 -74.125 7.234375 -77.523438 8.484375 -80.109375 C 9.734375 -82.703125 10.550781 -84 10.9375 -84 C 11.507812 -84 12.945312 -83.375 15.25 -82.125 C 17.550781 -80.882812 19.972656 -79.375 22.515625 -77.59375 C 25.054688 -75.820312 27.332031 -73.953125 29.34375 -71.984375 C 31.351562 -70.023438 32.359375 -68.328125 32.359375 -66.890625 C 32.359375 -66.597656 32.3125 -66.234375 32.21875 -65.796875 C 32.125 -65.367188 31.984375 -64.820312 31.796875 -64.15625 C 31.023438 -61.757812 30.039062 -58.929688 28.84375 -55.671875 C 27.644531 -52.410156 26.375 -49.03125 25.03125 -45.53125 C 23.6875 -42.03125 22.34375 -38.53125 21 -35.03125 C 19.65625 -31.53125 18.457031 -28.242188 17.40625 -25.171875 C 16.351562 -22.097656 15.488281 -19.410156 14.8125 -17.109375 C 14.144531 -14.816406 13.8125 -13.140625 13.8125 -12.078125 C 13.8125 -11.503906 14.097656 -11.21875 14.671875 -11.21875 C 15.722656 -11.21875 17.300781 -11.835938 19.40625 -13.078125 C 21.519531 -14.328125 23.941406 -15.957031 26.671875 -17.96875 C 29.410156 -19.988281 32.265625 -22.195312 35.234375 -24.59375 C 38.210938 -26.988281 41.066406 -29.359375 43.796875 -31.703125 C 46.535156 -34.054688 49.003906 -36.191406 51.203125 -38.109375 C 53.410156 -40.035156 55.09375 -41.476562 56.25 -42.4375 C 57.101562 -41.570312 58.128906 -40.46875 59.328125 -39.125 C 60.535156 -37.78125 61.664062 -36.535156 62.71875 -35.390625 C 60.601562 -33.273438 57.960938 -30.707031 54.796875 -27.6875 C 51.640625 -24.664062 48.210938 -21.570312 44.515625 -18.40625 C 40.828125 -15.25 36.992188 -12.085938 33.015625 -8.921875 C 29.035156 -5.753906 25.175781 -2.921875 21.4375 -0.421875 C 17.695312 2.066406 14.195312 4.078125 10.9375 5.609375 C 7.675781 7.140625 4.894531 7.90625 2.59375 7.90625 Z M 59.546875 -127.875 C 59.453125 -127.488281 59.09375 -126.550781 58.46875 -125.0625 C 57.84375 -123.582031 57.097656 -121.859375 56.234375 -119.890625 C 55.378906 -117.929688 54.398438 -115.867188 53.296875 -113.703125 C 52.191406 -111.546875 51.109375 -109.554688 50.046875 -107.734375 C 48.992188 -105.910156 47.988281 -104.398438 47.03125 -103.203125 C 46.070312 -102.003906 45.304688 -101.40625 44.734375 -101.40625 C 43.003906 -101.5 40.914062 -102.023438 38.46875 -102.984375 C 36.03125 -103.953125 33.679688 -105.035156 31.421875 -106.234375 C 29.171875 -107.429688 27.253906 -108.601562 25.671875 -109.75 C 24.085938 -110.90625 23.296875 -111.722656 23.296875 -112.203125 C 23.296875 -114.210938 23.867188 -116.820312 25.015625 -120.03125 C 26.171875 -123.25 27.515625 -126.367188 29.046875 -129.390625 C 30.585938 -132.410156 32.148438 -135.019531 33.734375 -137.21875 C 35.316406 -139.425781 36.539062 -140.53125 37.40625 -140.53125 C 39.125 -140.53125 41.226562 -139.976562 43.71875 -138.875 C 46.21875 -137.78125 48.640625 -136.507812 50.984375 -135.0625 C 53.335938 -133.625 55.351562 -132.207031 57.03125 -130.8125 C 58.707031 -129.425781 59.546875 -128.445312 59.546875 -127.875 Z M 59.546875 -127.875 "/></g></g><g transform="translate(307.8587, 262.768753)"><g><path d="M 72.203125 -14.390625 C 73.742188 -14.390625 75.6875 -14.960938 78.03125 -16.109375 C 80.382812 -17.265625 82.953125 -18.726562 85.734375 -20.5 C 88.515625 -22.269531 91.363281 -24.257812 94.28125 -26.46875 C 97.207031 -28.675781 99.988281 -30.832031 102.625 -32.9375 C 105.269531 -35.050781 107.644531 -37.019531 109.75 -38.84375 C 111.863281 -40.664062 113.492188 -42.054688 114.640625 -43.015625 C 115.503906 -42.148438 116.535156 -41.046875 117.734375 -39.703125 C 118.929688 -38.359375 120.054688 -37.113281 121.109375 -35.96875 C 119.003906 -33.851562 116.367188 -31.285156 113.203125 -28.265625 C 110.035156 -25.242188 106.601562 -22.148438 102.90625 -18.984375 C 99.21875 -15.816406 95.382812 -12.648438 91.40625 -9.484375 C 87.425781 -6.328125 83.539062 -3.5 79.75 -1 C 75.96875 1.488281 72.445312 3.5 69.1875 5.03125 C 65.925781 6.570312 63.191406 7.34375 60.984375 7.34375 C 57.242188 7.34375 53.863281 6.597656 50.84375 5.109375 C 47.820312 3.617188 45.085938 1.703125 42.640625 -0.640625 C 40.203125 -2.992188 37.925781 -5.679688 35.8125 -8.703125 C 33.707031 -11.722656 31.742188 -14.816406 29.921875 -17.984375 C 28.285156 -15.867188 26.628906 -13.539062 24.953125 -11 C 23.273438 -8.457031 21.71875 -6.035156 20.28125 -3.734375 C 18.84375 -1.429688 17.644531 0.578125 16.6875 2.296875 C 15.726562 4.023438 15.101562 5.082031 14.8125 5.46875 C 14.625 6.226562 14.335938 6.773438 13.953125 7.109375 C 13.566406 7.453125 12.941406 7.625 12.078125 7.625 C 10.640625 7.625 8.9375 7.070312 6.96875 5.96875 C 5.007812 4.863281 3.019531 3.398438 1 1.578125 C -1.007812 -0.242188 -2.992188 -2.234375 -4.953125 -4.390625 C -6.921875 -6.546875 -8.625 -8.726562 -10.0625 -10.9375 C -10.832031 -11.988281 -11.3125 -13.1875 -11.5 -14.53125 C -11.695312 -15.875 -11.796875 -17.503906 -11.796875 -19.421875 C -11.796875 -25.742188 -11.023438 -32.882812 -9.484375 -40.84375 C -7.953125 -48.8125 -5.796875 -57.179688 -3.015625 -65.953125 C -0.234375 -74.722656 3.09375 -83.785156 6.96875 -93.140625 C 10.851562 -102.492188 15.144531 -111.75 19.84375 -120.90625 C 24.550781 -130.0625 29.632812 -139 35.09375 -147.71875 C 40.5625 -156.445312 46.21875 -164.597656 52.0625 -172.171875 C 57.914062 -179.753906 63.910156 -186.566406 70.046875 -192.609375 C 76.191406 -198.648438 82.378906 -203.585938 88.609375 -207.421875 C 89.566406 -207.992188 90.453125 -208.375 91.265625 -208.5625 C 92.078125 -208.757812 92.773438 -208.859375 93.359375 -208.859375 C 94.503906 -208.859375 96.128906 -208.210938 98.234375 -206.921875 C 100.347656 -205.628906 102.578125 -204.070312 104.921875 -202.25 C 107.273438 -200.425781 109.484375 -198.601562 111.546875 -196.78125 C 113.609375 -194.957031 115.117188 -193.46875 116.078125 -192.3125 C 116.660156 -191.457031 116.953125 -190.210938 116.953125 -188.578125 C 116.953125 -182.253906 114.835938 -174.367188 110.609375 -164.921875 C 106.390625 -155.472656 100.441406 -145.066406 92.765625 -133.703125 C 85.097656 -122.335938 75.820312 -110.273438 64.9375 -97.515625 C 54.0625 -84.765625 41.957031 -71.96875 28.625 -59.125 C 27.1875 -54.226562 25.796875 -49.359375 24.453125 -44.515625 C 23.109375 -39.671875 21.863281 -34.804688 20.71875 -29.921875 C 29.726562 -42.867188 37.707031 -53.101562 44.65625 -60.625 C 51.613281 -68.15625 57.582031 -73.863281 62.5625 -77.75 C 67.550781 -81.632812 71.601562 -84.125 74.71875 -85.21875 C 77.84375 -86.320312 80.023438 -86.875 81.265625 -86.875 C 82.421875 -86.875 83.789062 -86.273438 85.375 -85.078125 C 86.957031 -83.878906 88.46875 -82.488281 89.90625 -80.90625 C 91.34375 -79.332031 92.632812 -77.800781 93.78125 -76.3125 C 94.9375 -74.820312 95.707031 -73.742188 96.09375 -73.078125 C 96.1875 -72.117188 95.175781 -70.175781 93.0625 -67.25 C 90.957031 -64.320312 88.035156 -60.941406 84.296875 -57.109375 C 80.554688 -53.273438 76.117188 -49.222656 70.984375 -44.953125 C 65.859375 -40.679688 60.273438 -36.722656 54.234375 -33.078125 C 57.296875 -28.671875 59.929688 -25.21875 62.140625 -22.71875 C 64.347656 -20.226562 66.21875 -18.363281 67.75 -17.125 C 69.476562 -15.675781 70.960938 -14.765625 72.203125 -14.390625 Z M 56.8125 -130.46875 C 53.9375 -124.71875 50.988281 -118.335938 47.96875 -111.328125 C 44.945312 -104.328125 41.953125 -96.898438 38.984375 -89.046875 C 49.628906 -101.128906 58.710938 -112.347656 66.234375 -122.703125 C 73.765625 -133.054688 79.953125 -142.425781 84.796875 -150.8125 C 89.640625 -159.207031 93.160156 -166.617188 95.359375 -173.046875 C 97.566406 -179.472656 98.671875 -184.84375 98.671875 -189.15625 C 98.671875 -189.445312 98.644531 -189.757812 98.59375 -190.09375 C 98.550781 -190.425781 98.289062 -190.59375 97.8125 -190.59375 C 96.664062 -190.59375 94.796875 -189.25 92.203125 -186.5625 C 89.617188 -183.875 86.503906 -179.941406 82.859375 -174.765625 C 79.210938 -169.585938 75.160156 -163.28125 70.703125 -155.84375 C 66.242188 -148.414062 61.613281 -139.957031 56.8125 -130.46875 Z M 56.8125 -130.46875 "/></g></g><g transform="translate(428.111588, 262.768753)"><g><path d="M 73.65625 -12.078125 C 75.09375 -12.078125 77.007812 -12.703125 79.40625 -13.953125 C 81.800781 -15.203125 84.457031 -16.785156 87.375 -18.703125 C 90.300781 -20.617188 93.300781 -22.75 96.375 -25.09375 C 99.445312 -27.445312 102.394531 -29.75 105.21875 -32 C 108.050781 -34.257812 110.566406 -36.320312 112.765625 -38.1875 C 114.972656 -40.0625 116.65625 -41.476562 117.8125 -42.4375 C 118.675781 -41.570312 119.707031 -40.46875 120.90625 -39.125 C 122.101562 -37.78125 123.226562 -36.535156 124.28125 -35.390625 C 122.164062 -33.273438 119.523438 -30.753906 116.359375 -27.828125 C 113.203125 -24.910156 109.800781 -21.914062 106.15625 -18.84375 C 102.507812 -15.769531 98.71875 -12.75 94.78125 -9.78125 C 90.851562 -6.8125 87.019531 -4.125 83.28125 -1.71875 C 79.539062 0.675781 76.039062 2.59375 72.78125 4.03125 C 69.519531 5.46875 66.789062 6.1875 64.59375 6.1875 C 62.769531 6.1875 60.632812 5.726562 58.1875 4.8125 C 55.738281 3.90625 53.382812 2.753906 51.125 1.359375 C 48.875 -0.0234375 46.957031 -1.554688 45.375 -3.234375 C 43.800781 -4.910156 43.015625 -6.566406 43.015625 -8.203125 C 43.109375 -12.328125 43.875 -17.117188 45.3125 -22.578125 C 46.75 -28.046875 48.445312 -33.65625 50.40625 -39.40625 C 52.375 -45.164062 54.484375 -50.847656 56.734375 -56.453125 C 58.992188 -62.066406 61.082031 -67.078125 63 -71.484375 C 62.238281 -71.296875 60.753906 -70.242188 58.546875 -68.328125 C 56.335938 -66.410156 53.675781 -63.796875 50.5625 -60.484375 C 47.445312 -57.179688 44.039062 -53.203125 40.34375 -48.546875 C 36.65625 -43.898438 33.007812 -38.695312 29.40625 -32.9375 C 25.8125 -27.1875 22.382812 -20.976562 19.125 -14.3125 C 15.863281 -7.644531 13.132812 -0.617188 10.9375 6.765625 C 10.644531 7.816406 10.234375 8.582031 9.703125 9.0625 C 9.179688 9.539062 8.296875 9.78125 7.046875 9.78125 C 6.179688 9.78125 4.835938 9.347656 3.015625 8.484375 C 1.191406 7.617188 -0.722656 6.585938 -2.734375 5.390625 C -4.742188 4.191406 -6.707031 2.921875 -8.625 1.578125 C -10.539062 0.234375 -12.078125 -0.960938 -13.234375 -2.015625 C -13.804688 -2.679688 -14.285156 -3.300781 -14.671875 -3.875 C -15.054688 -4.457031 -15.25 -5.320312 -15.25 -6.46875 C -15.25 -12.800781 -14.191406 -20.566406 -12.078125 -29.765625 C -9.972656 -38.972656 -7.070312 -48.972656 -3.375 -59.765625 C 0.3125 -70.554688 4.625 -81.820312 9.5625 -93.5625 C 14.5 -105.3125 19.769531 -116.84375 25.375 -128.15625 C 30.988281 -139.476562 36.84375 -150.242188 42.9375 -160.453125 C 49.03125 -170.671875 55.023438 -179.6875 60.921875 -187.5 C 66.816406 -195.3125 72.472656 -201.59375 77.890625 -206.34375 C 83.304688 -211.09375 88.269531 -213.609375 92.78125 -213.890625 C 94.988281 -213.222656 97.21875 -212.171875 99.46875 -210.734375 C 101.71875 -209.296875 103.847656 -207.710938 105.859375 -205.984375 C 107.878906 -204.253906 109.679688 -202.570312 111.265625 -200.9375 C 112.847656 -199.3125 114.070312 -197.925781 114.9375 -196.78125 C 115.507812 -196.007812 115.890625 -195.097656 116.078125 -194.046875 C 116.273438 -192.992188 116.375 -192.226562 116.375 -191.75 C 116.375 -188.289062 115.410156 -184.019531 113.484375 -178.9375 C 111.566406 -173.851562 108.882812 -168.144531 105.4375 -161.8125 C 101.988281 -155.488281 97.789062 -148.707031 92.84375 -141.46875 C 87.90625 -134.226562 82.441406 -126.796875 76.453125 -119.171875 C 70.460938 -111.546875 63.988281 -103.847656 57.03125 -96.078125 C 50.082031 -88.316406 42.816406 -80.789062 35.234375 -73.5 C 33.316406 -68.320312 31.59375 -63.289062 30.0625 -58.40625 C 35.238281 -63.769531 39.984375 -68.273438 44.296875 -71.921875 C 48.617188 -75.566406 52.457031 -78.46875 55.8125 -80.625 C 59.164062 -82.78125 62.015625 -84.3125 64.359375 -85.21875 C 66.710938 -86.132812 68.515625 -86.59375 69.765625 -86.59375 C 70.628906 -86.59375 72.160156 -86.039062 74.359375 -84.9375 C 76.566406 -83.832031 78.867188 -82.515625 81.265625 -80.984375 C 83.671875 -79.453125 85.878906 -77.867188 87.890625 -76.234375 C 89.898438 -74.609375 91.144531 -73.265625 91.625 -72.203125 C 91.820312 -71.722656 91.820312 -71.078125 91.625 -70.265625 C 91.4375 -69.453125 91.242188 -68.804688 91.046875 -68.328125 C 90.191406 -65.734375 89.160156 -62.734375 87.953125 -59.328125 C 86.753906 -55.929688 85.457031 -52.335938 84.0625 -48.546875 C 82.675781 -44.753906 81.3125 -40.941406 79.96875 -37.109375 C 78.632812 -33.273438 77.4375 -29.75 76.375 -26.53125 C 75.320312 -23.320312 74.457031 -20.492188 73.78125 -18.046875 C 73.113281 -15.609375 72.78125 -13.910156 72.78125 -12.953125 C 72.78125 -12.367188 73.070312 -12.078125 73.65625 -12.078125 Z M 60.984375 -135.796875 C 58.679688 -130.898438 56.453125 -126.03125 54.296875 -121.1875 C 52.140625 -116.34375 50.054688 -111.476562 48.046875 -106.59375 C 54.472656 -114.832031 60.707031 -123.195312 66.75 -131.6875 C 72.789062 -140.175781 78.179688 -148.328125 82.921875 -156.140625 C 87.671875 -163.953125 91.484375 -171.164062 94.359375 -177.78125 C 97.234375 -184.40625 98.671875 -189.972656 98.671875 -194.484375 C 98.671875 -196.585938 98.289062 -197.640625 97.53125 -197.640625 C 96.375 -197.640625 94.617188 -196.082031 92.265625 -192.96875 C 89.921875 -189.851562 87.117188 -185.5625 83.859375 -180.09375 C 80.597656 -174.625 77.023438 -168.101562 73.140625 -160.53125 C 69.253906 -152.957031 65.203125 -144.710938 60.984375 -135.796875 Z M 60.984375 -135.796875 "/></g></g><g transform="translate(552.104397, 262.768753)"><g><path d="M 2.59375 7.90625 C 1.15625 7.90625 -0.664062 7.398438 -2.875 6.390625 C -5.082031 5.390625 -7.191406 4.144531 -9.203125 2.65625 C -11.222656 1.175781 -12.953125 -0.472656 -14.390625 -2.296875 C -15.828125 -4.117188 -16.546875 -5.894531 -16.546875 -7.625 C -15.585938 -11.84375 -14.289062 -16.679688 -12.65625 -22.140625 C -11.03125 -27.609375 -9.28125 -33.171875 -7.40625 -38.828125 C -5.539062 -44.492188 -3.578125 -50.035156 -1.515625 -55.453125 C 0.546875 -60.867188 2.414062 -65.6875 4.09375 -69.90625 C 5.769531 -74.125 7.234375 -77.523438 8.484375 -80.109375 C 9.734375 -82.703125 10.550781 -84 10.9375 -84 C 11.507812 -84 12.945312 -83.375 15.25 -82.125 C 17.550781 -80.882812 19.972656 -79.375 22.515625 -77.59375 C 25.054688 -75.820312 27.332031 -73.953125 29.34375 -71.984375 C 31.351562 -70.023438 32.359375 -68.328125 32.359375 -66.890625 C 32.359375 -66.597656 32.3125 -66.234375 32.21875 -65.796875 C 32.125 -65.367188 31.984375 -64.820312 31.796875 -64.15625 C 31.023438 -61.757812 30.039062 -58.929688 28.84375 -55.671875 C 27.644531 -52.410156 26.375 -49.03125 25.03125 -45.53125 C 23.6875 -42.03125 22.34375 -38.53125 21 -35.03125 C 19.65625 -31.53125 18.457031 -28.242188 17.40625 -25.171875 C 16.351562 -22.097656 15.488281 -19.410156 14.8125 -17.109375 C 14.144531 -14.816406 13.8125 -13.140625 13.8125 -12.078125 C 13.8125 -11.503906 14.097656 -11.21875 14.671875 -11.21875 C 15.722656 -11.21875 17.300781 -11.835938 19.40625 -13.078125 C 21.519531 -14.328125 23.941406 -15.957031 26.671875 -17.96875 C 29.410156 -19.988281 32.265625 -22.195312 35.234375 -24.59375 C 38.210938 -26.988281 41.066406 -29.359375 43.796875 -31.703125 C 46.535156 -34.054688 49.003906 -36.191406 51.203125 -38.109375 C 53.410156 -40.035156 55.09375 -41.476562 56.25 -42.4375 C 57.101562 -41.570312 58.128906 -40.46875 59.328125 -39.125 C 60.535156 -37.78125 61.664062 -36.535156 62.71875 -35.390625 C 60.601562 -33.273438 57.960938 -30.707031 54.796875 -27.6875 C 51.640625 -24.664062 48.210938 -21.570312 44.515625 -18.40625 C 40.828125 -15.25 36.992188 -12.085938 33.015625 -8.921875 C 29.035156 -5.753906 25.175781 -2.921875 21.4375 -0.421875 C 17.695312 2.066406 14.195312 4.078125 10.9375 5.609375 C 7.675781 7.140625 4.894531 7.90625 2.59375 7.90625 Z M 59.546875 -127.875 C 59.453125 -127.488281 59.09375 -126.550781 58.46875 -125.0625 C 57.84375 -123.582031 57.097656 -121.859375 56.234375 -119.890625 C 55.378906 -117.929688 54.398438 -115.867188 53.296875 -113.703125 C 52.191406 -111.546875 51.109375 -109.554688 50.046875 -107.734375 C 48.992188 -105.910156 47.988281 -104.398438 47.03125 -103.203125 C 46.070312 -102.003906 45.304688 -101.40625 44.734375 -101.40625 C 43.003906 -101.5 40.914062 -102.023438 38.46875 -102.984375 C 36.03125 -103.953125 33.679688 -105.035156 31.421875 -106.234375 C 29.171875 -107.429688 27.253906 -108.601562 25.671875 -109.75 C 24.085938 -110.90625 23.296875 -111.722656 23.296875 -112.203125 C 23.296875 -114.210938 23.867188 -116.820312 25.015625 -120.03125 C 26.171875 -123.25 27.515625 -126.367188 29.046875 -129.390625 C 30.585938 -132.410156 32.148438 -135.019531 33.734375 -137.21875 C 35.316406 -139.425781 36.539062 -140.53125 37.40625 -140.53125 C 39.125 -140.53125 41.226562 -139.976562 43.71875 -138.875 C 46.21875 -137.78125 48.640625 -136.507812 50.984375 -135.0625 C 53.335938 -133.625 55.351562 -132.207031 57.03125 -130.8125 C 58.707031 -129.425781 59.546875 -128.445312 59.546875 -127.875 Z M 59.546875 -127.875 "/></g></g><g transform="translate(613.669273, 262.768753)"><g><path d="M 23.59375 -10.0625 C 25.125 -10.0625 27.207031 -10.734375 29.84375 -12.078125 C 32.476562 -13.421875 35.378906 -15.125 38.546875 -17.1875 C 41.710938 -19.25 45.019531 -21.523438 48.46875 -24.015625 C 51.925781 -26.515625 55.164062 -28.960938 58.1875 -31.359375 C 61.207031 -33.753906 63.914062 -35.957031 66.3125 -37.96875 C 68.707031 -39.988281 70.484375 -41.476562 71.640625 -42.4375 C 72.492188 -41.570312 73.519531 -40.46875 74.71875 -39.125 C 75.925781 -37.78125 77.054688 -36.535156 78.109375 -35.390625 C 75.992188 -33.273438 73.351562 -30.707031 70.1875 -27.6875 C 67.03125 -24.664062 63.601562 -21.570312 59.90625 -18.40625 C 56.21875 -15.25 52.382812 -12.085938 48.40625 -8.921875 C 44.425781 -5.753906 40.539062 -2.921875 36.75 -0.421875 C 32.96875 2.066406 29.441406 4.078125 26.171875 5.609375 C 22.910156 7.140625 20.179688 7.90625 17.984375 7.90625 C 15.003906 7.90625 11.859375 6.847656 8.546875 4.734375 C 5.242188 2.628906 2.15625 0.164062 -0.71875 -2.65625 C -3.59375 -5.488281 -6.035156 -8.34375 -8.046875 -11.21875 C -10.066406 -14.09375 -11.21875 -16.25 -11.5 -17.6875 C -11.695312 -18.269531 -11.796875 -18.96875 -11.796875 -19.78125 C -11.796875 -20.59375 -11.796875 -21.476562 -11.796875 -22.4375 C -11.796875 -27.226562 -11.195312 -33.289062 -10 -40.625 C -8.800781 -47.96875 -7.191406 -55.738281 -5.171875 -63.9375 C -3.160156 -72.132812 -0.835938 -80.285156 1.796875 -88.390625 C 4.429688 -96.492188 7.1875 -103.660156 10.0625 -109.890625 C 15.914062 -122.648438 21.9375 -133.96875 28.125 -143.84375 C 34.3125 -153.71875 40.375 -162.320312 46.3125 -169.65625 C 52.257812 -177 57.96875 -183.160156 63.4375 -188.140625 C 68.90625 -193.128906 73.816406 -197.15625 78.171875 -200.21875 C 82.535156 -203.289062 86.226562 -205.5 89.25 -206.84375 C 92.269531 -208.1875 94.359375 -208.859375 95.515625 -208.859375 C 97.335938 -208.191406 99.179688 -207.207031 101.046875 -205.90625 C 102.921875 -204.613281 104.671875 -203.25 106.296875 -201.8125 C 107.929688 -200.375 109.367188 -198.957031 110.609375 -197.5625 C 111.859375 -196.175781 112.769531 -195.148438 113.34375 -194.484375 C 114.113281 -193.710938 114.617188 -192.96875 114.859375 -192.25 C 115.097656 -191.53125 115.21875 -190.59375 115.21875 -189.4375 C 115.21875 -187.132812 114.640625 -183.96875 113.484375 -179.9375 C 112.335938 -175.914062 110.179688 -170.8125 107.015625 -164.625 C 103.859375 -158.445312 99.472656 -151.039062 93.859375 -142.40625 C 88.242188 -133.769531 80.929688 -123.703125 71.921875 -112.203125 C 67.703125 -106.828125 63.242188 -101.359375 58.546875 -95.796875 C 54.515625 -91.003906 49.863281 -85.78125 44.59375 -80.125 C 39.320312 -74.46875 33.90625 -69.046875 28.34375 -63.859375 C 25.5625 -53.316406 23.617188 -44.015625 22.515625 -35.953125 C 21.410156 -27.898438 20.859375 -21.625 20.859375 -17.125 C 20.859375 -14.144531 21.097656 -12.222656 21.578125 -11.359375 C 22.054688 -10.492188 22.726562 -10.0625 23.59375 -10.0625 Z M 46.609375 -115.5 C 44.972656 -111.863281 43.457031 -108.316406 42.0625 -104.859375 C 40.675781 -101.410156 39.363281 -98.007812 38.125 -94.65625 C 41.09375 -98.007812 43.800781 -101.21875 46.25 -104.28125 C 48.695312 -107.351562 50.78125 -109.992188 52.5 -112.203125 C 54.519531 -114.785156 56.34375 -117.226562 57.96875 -119.53125 C 64.675781 -128.925781 70.472656 -137.554688 75.359375 -145.421875 C 80.253906 -153.285156 84.285156 -160.210938 87.453125 -166.203125 C 90.617188 -172.203125 92.941406 -177.191406 94.421875 -181.171875 C 95.910156 -185.148438 96.65625 -188.003906 96.65625 -189.734375 C 96.65625 -190.210938 96.628906 -190.570312 96.578125 -190.8125 C 96.535156 -191.050781 96.273438 -191.171875 95.796875 -191.171875 C 94.929688 -191.171875 92.960938 -189.753906 89.890625 -186.921875 C 86.828125 -184.097656 83.066406 -179.613281 78.609375 -173.46875 C 74.148438 -167.332031 69.160156 -159.492188 63.640625 -149.953125 C 58.128906 -140.410156 52.453125 -128.925781 46.609375 -115.5 Z M 46.609375 -115.5 "/></g></g></g><g fill="#ee1122" fill-opacity="1"><g transform="translate(711.028963, 253.636215)"><g><path d="M 42.4375 -18.5625 C 42.4375 -17.789062 41.765625 -16.035156 40.421875 -13.296875 C 39.078125 -10.566406 37.492188 -7.691406 35.671875 -4.671875 C 33.847656 -1.648438 32.070312 1.054688 30.34375 3.453125 C 28.625 5.847656 27.332031 7.046875 26.46875 7.046875 C 25.695312 7.046875 23.992188 6.46875 21.359375 5.3125 C 18.722656 4.164062 15.941406 2.875 13.015625 1.4375 C 10.085938 0 7.472656 -1.4375 5.171875 -2.875 C 2.867188 -4.3125 1.71875 -5.316406 1.71875 -5.890625 C 1.71875 -7.617188 2.363281 -10.085938 3.65625 -13.296875 C 4.957031 -16.515625 6.46875 -19.65625 8.1875 -22.71875 C 9.914062 -25.789062 11.59375 -28.476562 13.21875 -30.78125 C 14.851562 -33.082031 15.960938 -34.234375 16.546875 -34.234375 C 17.503906 -34.234375 18.820312 -33.894531 20.5 -33.21875 C 22.175781 -32.550781 23.972656 -31.710938 25.890625 -30.703125 C 27.804688 -29.703125 29.75 -28.550781 31.71875 -27.25 C 33.6875 -25.957031 35.457031 -24.734375 37.03125 -23.578125 C 38.613281 -22.429688 39.910156 -21.398438 40.921875 -20.484375 C 41.929688 -19.578125 42.4375 -18.9375 42.4375 -18.5625 Z M 42.4375 -18.5625 "/></g></g></g><g fill="#0d090a" fill-opacity="1"><g transform="translate(803.936461, 262.768753)"><g><path d="M 192.03125 -175.921875 C 192.03125 -170.929688 191.597656 -165.054688 190.734375 -158.296875 C 189.867188 -151.535156 188.40625 -143.769531 186.34375 -135 C 184.289062 -126.226562 181.507812 -116.421875 178 -105.578125 C 174.5 -94.742188 170.160156 -82.710938 164.984375 -69.484375 C 159.328125 -55.097656 153.550781 -42.363281 147.65625 -31.28125 C 141.757812 -20.207031 136.242188 -10.832031 131.109375 -3.15625 C 125.984375 4.507812 121.5 10.453125 117.65625 14.671875 C 113.820312 18.890625 111.140625 21.382812 109.609375 22.15625 C 107.117188 23.300781 104.382812 23.875 101.40625 23.875 C 98.914062 23.875 96.375 23.488281 93.78125 22.71875 C 91.195312 21.957031 88.992188 20.757812 87.171875 19.125 C 86.015625 18.164062 84.117188 15.71875 81.484375 11.78125 C 78.847656 7.851562 76.039062 2.269531 73.0625 -4.96875 C 70.09375 -12.207031 67.21875 -21.242188 64.4375 -32.078125 C 61.65625 -42.910156 59.59375 -55.804688 58.25 -70.765625 C 54.132812 -65.398438 49.628906 -59.644531 44.734375 -53.5 C 39.847656 -47.363281 34.863281 -41.25 29.78125 -35.15625 C 24.695312 -29.070312 19.632812 -23.128906 14.59375 -17.328125 C 9.5625 -11.523438 4.835938 -6.226562 0.421875 -1.4375 C -3.984375 3.351562 -7.910156 7.5 -11.359375 11 C -14.816406 14.5 -17.503906 17.019531 -19.421875 18.5625 C -20.472656 17.601562 -21.691406 16.453125 -23.078125 15.109375 C -24.472656 13.765625 -25.910156 12.347656 -27.390625 10.859375 C -28.878906 9.367188 -30.316406 7.859375 -31.703125 6.328125 C -33.097656 4.796875 -34.328125 3.359375 -35.390625 2.015625 C -21.390625 -10.253906 -7.195312 -27.5625 7.1875 -49.90625 C 21.570312 -72.257812 35.285156 -99.207031 48.328125 -130.75 C 49.960938 -129.40625 51.5 -128.0625 52.9375 -126.71875 C 54.375 -125.382812 55.765625 -124.046875 57.109375 -122.703125 C 57.492188 -136.128906 57.945312 -148.066406 58.46875 -158.515625 C 59 -168.972656 59.597656 -178.203125 60.265625 -186.203125 C 60.941406 -194.210938 61.585938 -201.09375 62.203125 -206.84375 C 62.828125 -212.601562 63.425781 -217.492188 64 -221.515625 C 64.582031 -225.546875 65.085938 -228.832031 65.515625 -231.375 C 65.953125 -233.914062 66.3125 -235.953125 66.59375 -237.484375 C 67.550781 -236.617188 68.988281 -235.25 70.90625 -233.375 C 72.832031 -231.507812 74.992188 -229.425781 77.390625 -227.125 C 79.785156 -224.820312 82.300781 -222.398438 84.9375 -219.859375 C 87.570312 -217.316406 90.0625 -214.894531 92.40625 -212.59375 C 94.757812 -210.300781 96.820312 -208.242188 98.59375 -206.421875 C 100.375 -204.597656 101.601562 -203.253906 102.28125 -202.390625 C 101.03125 -197.597656 99.613281 -192.007812 98.03125 -185.625 C 96.445312 -179.25 94.957031 -171.769531 93.5625 -163.1875 C 92.175781 -154.601562 91.003906 -144.796875 90.046875 -133.765625 C 89.085938 -122.742188 88.609375 -110.1875 88.609375 -96.09375 C 88.703125 -82.945312 89.179688 -70.238281 90.046875 -57.96875 C 90.429688 -52.695312 90.882812 -47.253906 91.40625 -41.640625 C 91.9375 -36.035156 92.609375 -30.519531 93.421875 -25.09375 C 94.242188 -19.675781 95.226562 -14.472656 96.375 -9.484375 C 97.53125 -4.503906 98.828125 -0.046875 100.265625 3.890625 C 112.242188 -15.867188 121.804688 -35 128.953125 -53.5 C 136.097656 -72.007812 141.585938 -90.132812 145.421875 -107.875 C 149.265625 -125.625 151.757812 -143.101562 152.90625 -160.3125 C 154.0625 -177.53125 154.640625 -194.722656 154.640625 -211.890625 L 154.640625 -221.8125 C 159.617188 -217.96875 164.363281 -213.695312 168.875 -209 C 173.382812 -204.300781 177.363281 -199.84375 180.8125 -195.625 C 184.84375 -190.738281 188.582031 -185.800781 192.03125 -180.8125 Z M 192.03125 -175.921875 "/></g></g><g transform="translate(999.275479, 262.768753)"><g><path d="M 93.0625 -35.390625 C 84.238281 -26.753906 75.921875 -19.507812 68.109375 -13.65625 C 60.296875 -7.8125 52.835938 -3.117188 45.734375 0.421875 C 38.640625 3.972656 31.851562 6.515625 25.375 8.046875 C 18.90625 9.585938 12.601562 10.359375 6.46875 10.359375 C 3.882812 10.359375 1.007812 9.398438 -2.15625 7.484375 C -5.320312 5.566406 -8.269531 3.238281 -11 0.5 C -13.738281 -2.226562 -16.015625 -5.078125 -17.828125 -8.046875 C -19.648438 -11.023438 -20.5625 -13.566406 -20.5625 -15.671875 C -20.5625 -23.535156 -19.484375 -30.753906 -17.328125 -37.328125 C -15.171875 -43.898438 -12.316406 -49.820312 -8.765625 -55.09375 C -5.222656 -60.363281 -1.175781 -65.015625 3.375 -69.046875 C 7.9375 -73.078125 12.6875 -76.429688 17.625 -79.109375 C 22.5625 -81.796875 27.472656 -83.8125 32.359375 -85.15625 C 37.253906 -86.5 41.765625 -87.171875 45.890625 -87.171875 C 48.859375 -87.171875 51.804688 -86.304688 54.734375 -84.578125 C 57.660156 -82.847656 60.320312 -80.738281 62.71875 -78.25 C 65.113281 -75.757812 67.050781 -73.144531 68.53125 -70.40625 C 70.019531 -67.675781 70.765625 -65.304688 70.765625 -63.296875 C 70.765625 -60.035156 69.398438 -56.703125 66.671875 -53.296875 C 63.941406 -49.890625 60.082031 -46.410156 55.09375 -42.859375 C 50.101562 -39.316406 44.109375 -35.695312 37.109375 -32 C 30.109375 -28.3125 22.390625 -24.597656 13.953125 -20.859375 C 13.660156 -18.554688 13.515625 -16.300781 13.515625 -14.09375 C 13.515625 -11.125 14.160156 -9.109375 15.453125 -8.046875 C 16.753906 -6.992188 19.179688 -6.46875 22.734375 -6.46875 C 29.054688 -6.46875 35.019531 -7.519531 40.625 -9.625 C 46.238281 -11.738281 51.632812 -14.472656 56.8125 -17.828125 C 62 -21.191406 66.988281 -25.03125 71.78125 -29.34375 C 76.570312 -33.65625 81.316406 -38.019531 86.015625 -42.4375 Z M 42.4375 -71.34375 C 40.519531 -71.34375 38.410156 -70.3125 36.109375 -68.25 C 33.804688 -66.1875 31.503906 -63.476562 29.203125 -60.125 C 26.898438 -56.769531 24.691406 -52.910156 22.578125 -48.546875 C 20.472656 -44.179688 18.65625 -39.648438 17.125 -34.953125 C 20.664062 -37.253906 24.140625 -39.695312 27.546875 -42.28125 C 30.953125 -44.875 33.992188 -47.582031 36.671875 -50.40625 C 39.359375 -53.238281 41.515625 -56.140625 43.140625 -59.109375 C 44.773438 -62.085938 45.59375 -65.0625 45.59375 -68.03125 C 45.59375 -68.894531 45.328125 -69.660156 44.796875 -70.328125 C 44.273438 -71.003906 43.488281 -71.34375 42.4375 -71.34375 Z M 42.4375 -71.34375 "/></g></g><g transform="translate(1092.054322, 262.768753)"><g><path d="M 24.890625 -53.078125 C 30.066406 -59.503906 34.8125 -64.800781 39.125 -68.96875 C 43.4375 -73.144531 47.25 -76.453125 50.5625 -78.890625 C 53.875 -81.335938 56.675781 -83.039062 58.96875 -84 C 61.269531 -84.957031 63 -85.4375 64.15625 -85.4375 C 65.6875 -85.4375 67.363281 -84.859375 69.1875 -83.703125 C 71.007812 -82.554688 72.804688 -81.164062 74.578125 -79.53125 C 76.359375 -77.90625 78.015625 -76.226562 79.546875 -74.5 C 81.078125 -72.78125 82.375 -71.394531 83.4375 -70.34375 C 84.488281 -69.28125 85.132812 -68.148438 85.375 -66.953125 C 85.613281 -65.753906 85.734375 -64.535156 85.734375 -63.296875 C 85.734375 -58.785156 84.960938 -53.867188 83.421875 -48.546875 C 81.890625 -43.222656 79.878906 -37.945312 77.390625 -32.71875 C 74.898438 -27.5 72.070312 -22.535156 68.90625 -17.828125 C 65.738281 -13.128906 62.523438 -9.148438 59.265625 -5.890625 C 62.046875 -7.046875 64.894531 -8.460938 67.8125 -10.140625 C 70.738281 -11.816406 73.640625 -13.613281 76.515625 -15.53125 C 79.398438 -17.445312 82.234375 -19.4375 85.015625 -21.5 C 87.796875 -23.5625 90.429688 -25.601562 92.921875 -27.625 C 98.773438 -32.21875 104.429688 -37.15625 109.890625 -42.4375 L 116.375 -35.390625 C 113.207031 -32.410156 109.679688 -29.242188 105.796875 -25.890625 C 101.910156 -22.535156 97.859375 -19.226562 93.640625 -15.96875 C 89.421875 -12.707031 85.128906 -9.585938 80.765625 -6.609375 C 76.398438 -3.640625 72.203125 -1.003906 68.171875 1.296875 C 64.148438 3.597656 60.410156 5.421875 56.953125 6.765625 C 53.503906 8.109375 50.535156 8.78125 48.046875 8.78125 C 46.316406 8.78125 44.15625 8.273438 41.5625 7.265625 C 38.976562 6.253906 36.460938 5.03125 34.015625 3.59375 C 31.566406 2.15625 29.457031 0.597656 27.6875 -1.078125 C 25.914062 -2.753906 25.03125 -4.265625 25.03125 -5.609375 C 25.03125 -6.378906 25.53125 -7.070312 26.53125 -7.6875 C 27.539062 -8.3125 29.003906 -9.4375 30.921875 -11.0625 C 32.835938 -12.695312 35.140625 -15.144531 37.828125 -18.40625 C 40.515625 -21.664062 43.535156 -26.414062 46.890625 -32.65625 C 48.710938 -36.101562 50.4375 -39.671875 52.0625 -43.359375 C 53.695312 -47.054688 55.132812 -50.507812 56.375 -53.71875 C 57.625 -56.9375 58.609375 -59.71875 59.328125 -62.0625 C 60.054688 -64.414062 60.421875 -66.023438 60.421875 -66.890625 C 60.421875 -67.753906 60.300781 -68.351562 60.0625 -68.6875 C 59.820312 -69.019531 59.601562 -69.285156 59.40625 -69.484375 C 59.019531 -69.578125 58.6875 -69.578125 58.40625 -69.484375 C 57.0625 -69.097656 54.347656 -66.960938 50.265625 -63.078125 C 46.191406 -59.191406 41.421875 -53.628906 35.953125 -46.390625 C 30.492188 -39.148438 24.691406 -30.328125 18.546875 -19.921875 C 12.410156 -9.515625 6.613281 2.347656 1.15625 15.671875 C -3.351562 28.523438 -7.859375 41.519531 -12.359375 54.65625 C -16.867188 67.800781 -21.285156 80.894531 -25.609375 93.9375 L -62.140625 102.5625 C -56.578125 86.738281 -50.796875 71.035156 -44.796875 55.453125 C -38.804688 39.867188 -32.863281 24.285156 -26.96875 8.703125 C -21.070312 -6.878906 -15.269531 -22.484375 -9.5625 -38.109375 C -3.851562 -53.742188 1.585938 -69.425781 6.765625 -85.15625 C 7.046875 -86.207031 7.304688 -86.945312 7.546875 -87.375 C 7.785156 -87.8125 8.289062 -88.03125 9.0625 -88.03125 C 10.59375 -87.550781 12.460938 -86.664062 14.671875 -85.375 C 16.878906 -84.082031 19.0625 -82.59375 21.21875 -80.90625 C 23.375 -79.226562 25.3125 -77.523438 27.03125 -75.796875 C 28.757812 -74.078125 29.960938 -72.59375 30.640625 -71.34375 C 30.828125 -71.0625 30.800781 -70.554688 30.5625 -69.828125 C 30.320312 -69.109375 30.0625 -68.320312 29.78125 -67.46875 Z M 24.890625 -53.078125 "/></g></g><g transform="translate(1208.423442, 262.768753)"><g><path d="M 74.21875 -12.65625 C 74.21875 -12.082031 74.507812 -11.796875 75.09375 -11.796875 C 75.945312 -11.796875 77.378906 -12.414062 79.390625 -13.65625 C 81.410156 -14.90625 83.710938 -16.488281 86.296875 -18.40625 C 88.890625 -20.320312 91.648438 -22.476562 94.578125 -24.875 C 97.503906 -27.28125 100.304688 -29.632812 102.984375 -31.9375 C 105.671875 -34.238281 108.09375 -36.347656 110.25 -38.265625 C 112.414062 -40.179688 114.070312 -41.664062 115.21875 -42.71875 C 116.082031 -41.851562 117.160156 -40.703125 118.453125 -39.265625 C 119.742188 -37.828125 120.921875 -36.535156 121.984375 -35.390625 C 119.679688 -33.273438 116.921875 -30.707031 113.703125 -27.6875 C 110.492188 -24.664062 107.039062 -21.523438 103.34375 -18.265625 C 99.65625 -15.003906 95.84375 -11.765625 91.90625 -8.546875 C 87.976562 -5.335938 84.144531 -2.488281 80.40625 0 C 76.664062 2.488281 73.117188 4.523438 69.765625 6.109375 C 66.410156 7.691406 63.484375 8.484375 60.984375 8.484375 C 59.265625 8.484375 57.375 8.144531 55.3125 7.46875 C 53.25 6.800781 51.351562 5.867188 49.625 4.671875 C 47.894531 3.472656 46.453125 2.054688 45.296875 0.421875 C 44.148438 -1.203125 43.578125 -3.019531 43.578125 -5.03125 C 43.578125 -5.800781 43.550781 -6.738281 43.5 -7.84375 C 43.457031 -8.945312 43.53125 -10.382812 43.71875 -12.15625 C 43.914062 -13.925781 44.300781 -16.082031 44.875 -18.625 C 45.457031 -21.164062 46.320312 -24.304688 47.46875 -28.046875 C 44.300781 -24.691406 40.582031 -21.191406 36.3125 -17.546875 C 32.050781 -13.898438 27.570312 -10.445312 22.875 -7.1875 C 18.175781 -3.925781 13.453125 -0.976562 8.703125 1.65625 C 3.953125 4.289062 -0.429688 6.28125 -4.453125 7.625 C -4.929688 7.8125 -5.316406 7.90625 -5.609375 7.90625 C -5.898438 7.90625 -6.1875 7.90625 -6.46875 7.90625 C -7.425781 7.90625 -8.695312 7.425781 -10.28125 6.46875 C -11.863281 5.507812 -13.421875 4.238281 -14.953125 2.65625 C -16.492188 1.070312 -17.8125 -0.722656 -18.90625 -2.734375 C -20.007812 -4.742188 -20.5625 -6.757812 -20.5625 -8.78125 C -20.5625 -9.351562 -20.273438 -11.269531 -19.703125 -14.53125 C -19.128906 -17.789062 -17.765625 -21.9375 -15.609375 -26.96875 C -13.453125 -32 -10.265625 -37.65625 -6.046875 -43.9375 C -1.828125 -50.21875 3.925781 -56.671875 11.21875 -63.296875 C 14.957031 -66.648438 18.984375 -69.8125 23.296875 -72.78125 C 26.941406 -75.28125 31.113281 -77.820312 35.8125 -80.40625 C 40.507812 -83 45.453125 -85.0625 50.640625 -86.59375 C 50.828125 -86.59375 50.992188 -86.640625 51.140625 -86.734375 C 51.285156 -86.828125 51.5 -86.78125 51.78125 -86.59375 C 52.9375 -86.207031 54.300781 -85.609375 55.875 -84.796875 C 57.457031 -83.984375 59.039062 -83.117188 60.625 -82.203125 C 62.207031 -81.296875 63.597656 -80.382812 64.796875 -79.46875 C 65.992188 -78.5625 66.785156 -77.820312 67.171875 -77.25 C 67.265625 -77.050781 67.265625 -76.90625 67.171875 -76.8125 L 66.890625 -76.53125 C 62.578125 -74.226562 58.5 -71.660156 54.65625 -68.828125 C 50.820312 -66.003906 47.421875 -63.34375 44.453125 -60.84375 C 40.992188 -57.875 37.78125 -54.953125 34.8125 -52.078125 C 27.8125 -45.171875 22.96875 -39.195312 20.28125 -34.15625 C 17.59375 -29.125 16.25 -25.503906 16.25 -23.296875 C 16.25 -21.671875 16.921875 -20.859375 18.265625 -20.859375 C 19.609375 -20.859375 21.3125 -21.410156 23.375 -22.515625 C 25.4375 -23.617188 27.757812 -25.101562 30.34375 -26.96875 C 32.9375 -28.84375 35.789062 -31.050781 38.90625 -33.59375 C 42.019531 -36.132812 45.257812 -38.796875 48.625 -41.578125 C 51.59375 -43.972656 54.46875 -46.5625 57.25 -49.34375 C 59.644531 -51.644531 62.132812 -54.28125 64.71875 -57.25 C 67.3125 -60.21875 69.519531 -63.238281 71.34375 -66.3125 C 71.34375 -66.40625 71.390625 -66.5 71.484375 -66.59375 C 71.585938 -66.695312 71.734375 -66.695312 71.921875 -66.59375 C 72.972656 -65.832031 74.171875 -64.5625 75.515625 -62.78125 C 76.859375 -61.007812 78.101562 -59.066406 79.25 -56.953125 C 80.40625 -54.847656 81.390625 -52.8125 82.203125 -50.84375 C 83.023438 -48.882812 83.4375 -47.375 83.4375 -46.3125 C 81.226562 -41.8125 79.523438 -37.710938 78.328125 -34.015625 C 77.128906 -30.328125 76.21875 -27.09375 75.59375 -24.3125 C 74.96875 -21.53125 74.582031 -19.15625 74.4375 -17.1875 C 74.289062 -15.21875 74.21875 -13.707031 74.21875 -12.65625 Z M 74.21875 -12.65625 "/></g></g><g transform="translate(1330.11476, 262.768753)"><g><path d="M 23.59375 -10.0625 C 25.125 -10.0625 27.207031 -10.734375 29.84375 -12.078125 C 32.476562 -13.421875 35.378906 -15.125 38.546875 -17.1875 C 41.710938 -19.25 45.019531 -21.523438 48.46875 -24.015625 C 51.925781 -26.515625 55.164062 -28.960938 58.1875 -31.359375 C 61.207031 -33.753906 63.914062 -35.957031 66.3125 -37.96875 C 68.707031 -39.988281 70.484375 -41.476562 71.640625 -42.4375 C 72.492188 -41.570312 73.519531 -40.46875 74.71875 -39.125 C 75.925781 -37.78125 77.054688 -36.535156 78.109375 -35.390625 C 75.992188 -33.273438 73.351562 -30.707031 70.1875 -27.6875 C 67.03125 -24.664062 63.601562 -21.570312 59.90625 -18.40625 C 56.21875 -15.25 52.382812 -12.085938 48.40625 -8.921875 C 44.425781 -5.753906 40.539062 -2.921875 36.75 -0.421875 C 32.96875 2.066406 29.441406 4.078125 26.171875 5.609375 C 22.910156 7.140625 20.179688 7.90625 17.984375 7.90625 C 15.003906 7.90625 11.859375 6.847656 8.546875 4.734375 C 5.242188 2.628906 2.15625 0.164062 -0.71875 -2.65625 C -3.59375 -5.488281 -6.035156 -8.34375 -8.046875 -11.21875 C -10.066406 -14.09375 -11.21875 -16.25 -11.5 -17.6875 C -11.695312 -18.269531 -11.796875 -18.96875 -11.796875 -19.78125 C -11.796875 -20.59375 -11.796875 -21.476562 -11.796875 -22.4375 C -11.796875 -27.226562 -11.195312 -33.289062 -10 -40.625 C -8.800781 -47.96875 -7.191406 -55.738281 -5.171875 -63.9375 C -3.160156 -72.132812 -0.835938 -80.285156 1.796875 -88.390625 C 4.429688 -96.492188 7.1875 -103.660156 10.0625 -109.890625 C 15.914062 -122.648438 21.9375 -133.96875 28.125 -143.84375 C 34.3125 -153.71875 40.375 -162.320312 46.3125 -169.65625 C 52.257812 -177 57.96875 -183.160156 63.4375 -188.140625 C 68.90625 -193.128906 73.816406 -197.15625 78.171875 -200.21875 C 82.535156 -203.289062 86.226562 -205.5 89.25 -206.84375 C 92.269531 -208.1875 94.359375 -208.859375 95.515625 -208.859375 C 97.335938 -208.191406 99.179688 -207.207031 101.046875 -205.90625 C 102.921875 -204.613281 104.671875 -203.25 106.296875 -201.8125 C 107.929688 -200.375 109.367188 -198.957031 110.609375 -197.5625 C 111.859375 -196.175781 112.769531 -195.148438 113.34375 -194.484375 C 114.113281 -193.710938 114.617188 -192.96875 114.859375 -192.25 C 115.097656 -191.53125 115.21875 -190.59375 115.21875 -189.4375 C 115.21875 -187.132812 114.640625 -183.96875 113.484375 -179.9375 C 112.335938 -175.914062 110.179688 -170.8125 107.015625 -164.625 C 103.859375 -158.445312 99.472656 -151.039062 93.859375 -142.40625 C 88.242188 -133.769531 80.929688 -123.703125 71.921875 -112.203125 C 67.703125 -106.828125 63.242188 -101.359375 58.546875 -95.796875 C 54.515625 -91.003906 49.863281 -85.78125 44.59375 -80.125 C 39.320312 -74.46875 33.90625 -69.046875 28.34375 -63.859375 C 25.5625 -53.316406 23.617188 -44.015625 22.515625 -35.953125 C 21.410156 -27.898438 20.859375 -21.625 20.859375 -17.125 C 20.859375 -14.144531 21.097656 -12.222656 21.578125 -11.359375 C 22.054688 -10.492188 22.726562 -10.0625 23.59375 -10.0625 Z M 46.609375 -115.5 C 44.972656 -111.863281 43.457031 -108.316406 42.0625 -104.859375 C 40.675781 -101.410156 39.363281 -98.007812 38.125 -94.65625 C 41.09375 -98.007812 43.800781 -101.21875 46.25 -104.28125 C 48.695312 -107.351562 50.78125 -109.992188 52.5 -112.203125 C 54.519531 -114.785156 56.34375 -117.226562 57.96875 -119.53125 C 64.675781 -128.925781 70.472656 -137.554688 75.359375 -145.421875 C 80.253906 -153.285156 84.285156 -160.210938 87.453125 -166.203125 C 90.617188 -172.203125 92.941406 -177.191406 94.421875 -181.171875 C 95.910156 -185.148438 96.65625 -188.003906 96.65625 -189.734375 C 96.65625 -190.210938 96.628906 -190.570312 96.578125 -190.8125 C 96.535156 -191.050781 96.273438 -191.171875 95.796875 -191.171875 C 94.929688 -191.171875 92.960938 -189.753906 89.890625 -186.921875 C 86.828125 -184.097656 83.066406 -179.613281 78.609375 -173.46875 C 74.148438 -167.332031 69.160156 -159.492188 63.640625 -149.953125 C 58.128906 -140.410156 52.453125 -128.925781 46.609375 -115.5 Z M 46.609375 -115.5 "/></g></g></g></svg>