<?xml version="1.0" encoding="utf-8"?>
<svg viewBox="47.851 -201.684 538.3051 477.1094" width="538.3051" height="477.1094" xmlns="http://www.w3.org/2000/svg">
  <g fill="#00a9a5" fill-opacity="1" transform="matrix(0.9999999999999999, 0, 0, 0.9999999999999999, -58.06654825905781, -335.483342401435)">
    <g transform="translate(170.511295, 567.314929)">
      <g>
        <path d="M 350.53125 -321.125 C 350.53125 -312.019531 349.742188 -301.296875 348.171875 -288.953125 C 346.597656 -276.617188 343.925781 -262.441406 340.15625 -246.421875 C 336.394531 -230.410156 331.316406 -212.515625 324.921875 -192.734375 C 318.535156 -172.953125 310.617188 -150.984375 301.171875 -126.828125 C 290.847656 -100.566406 280.300781 -77.328125 269.53125 -57.109375 C 258.769531 -36.890625 248.703125 -19.773438 239.328125 -5.765625 C 229.960938 8.234375 221.78125 19.082031 214.78125 26.78125 C 207.78125 34.476562 202.878906 39.03125 200.078125 40.4375 C 195.523438 42.539062 190.535156 43.59375 185.109375 43.59375 C 180.554688 43.59375 175.914062 42.890625 171.1875 41.484375 C 166.46875 40.085938 162.445312 37.898438 159.125 34.921875 C 157.019531 33.171875 153.5625 28.707031 148.75 21.53125 C 143.9375 14.351562 138.816406 4.15625 133.390625 -9.0625 C 127.960938 -22.28125 122.707031 -38.773438 117.625 -58.546875 C 112.550781 -78.328125 108.789062 -101.875 106.34375 -129.1875 C 98.8125 -119.382812 90.582031 -108.878906 81.65625 -97.671875 C 72.726562 -86.472656 63.625 -75.316406 54.34375 -64.203125 C 45.070312 -53.085938 35.835938 -42.234375 26.640625 -31.640625 C 17.453125 -21.046875 8.832031 -11.375 0.78125 -2.625 C -7.269531 6.125 -14.445312 13.691406 -20.75 20.078125 C -27.050781 26.472656 -31.953125 31.070312 -35.453125 33.875 C -37.367188 32.125 -39.597656 30.019531 -42.140625 27.5625 C -44.679688 25.113281 -47.304688 22.53125 -50.015625 19.8125 C -52.734375 17.101562 -55.359375 14.347656 -57.890625 11.546875 C -60.429688 8.753906 -62.664062 6.128906 -64.59375 3.671875 C -39.03125 -18.734375 -13.125 -50.328125 13.125 -91.109375 C 39.382812 -131.898438 64.414062 -181.085938 88.21875 -238.671875 C 91.195312 -236.222656 94 -233.773438 96.625 -231.328125 C 99.25 -228.878906 101.785156 -226.425781 104.234375 -223.96875 C 104.941406 -248.476562 105.773438 -270.269531 106.734375 -289.34375 C 107.703125 -308.425781 108.796875 -325.273438 110.015625 -339.890625 C 111.242188 -354.515625 112.425781 -367.078125 113.5625 -377.578125 C 114.695312 -388.078125 115.789062 -397.003906 116.84375 -404.359375 C 117.894531 -411.710938 118.8125 -417.707031 119.59375 -422.34375 C 120.382812 -426.988281 121.046875 -430.710938 121.578125 -433.515625 C 123.328125 -431.929688 125.953125 -429.429688 129.453125 -426.015625 C 132.953125 -422.609375 136.890625 -418.800781 141.265625 -414.59375 C 145.640625 -410.394531 150.234375 -405.976562 155.046875 -401.34375 C 159.859375 -396.707031 164.410156 -392.285156 168.703125 -388.078125 C 172.992188 -383.878906 176.757812 -380.113281 180 -376.78125 C 183.238281 -373.457031 185.46875 -371.007812 186.6875 -369.4375 C 184.414062 -360.6875 181.832031 -350.488281 178.9375 -338.84375 C 176.050781 -327.207031 173.335938 -313.554688 170.796875 -297.890625 C 168.265625 -282.222656 166.125 -264.320312 164.375 -244.1875 C 162.625 -224.0625 161.75 -201.132812 161.75 -175.40625 C 161.914062 -151.414062 162.789062 -128.21875 164.375 -105.8125 C 165.070312 -96.1875 165.898438 -86.253906 166.859375 -76.015625 C 167.828125 -65.773438 169.050781 -55.707031 170.53125 -45.8125 C 172.019531 -35.925781 173.816406 -26.429688 175.921875 -17.328125 C 178.023438 -8.222656 180.390625 -0.0820312 183.015625 7.09375 C 204.890625 -28.96875 222.347656 -63.890625 235.390625 -97.671875 C 248.429688 -131.460938 258.453125 -164.546875 265.453125 -196.921875 C 272.460938 -229.304688 277.015625 -261.207031 279.109375 -292.625 C 281.210938 -324.050781 282.265625 -355.429688 282.265625 -386.765625 L 282.265625 -404.890625 C 291.367188 -397.890625 300.035156 -390.097656 308.265625 -381.515625 C 316.492188 -372.941406 323.753906 -364.800781 330.046875 -357.09375 C 337.398438 -348.164062 344.226562 -339.148438 350.53125 -330.046875 Z M 350.53125 -321.125 "/>
      </g>
    </g>
    <g transform="translate(527.083736, 567.314929)">
      <g>
        <path d="M 4.719 14.438 C 2.094 14.438 -1.227 13.516 -5.25 11.672 C -9.281 9.836 -13.129 7.563 -16.797 4.844 C -20.473 2.133 -23.625 -0.879 -26.25 -4.203 C -28.883 -7.523 -30.203 -10.766 -30.203 -13.922 C -28.441 -21.617 -26.07 -30.457 -23.094 -40.437 C -20.125 -50.414 -16.93 -60.566 -13.516 -70.891 C -10.109 -81.223 -6.52 -91.332 -2.75 -101.219 C 1.008 -111.113 4.422 -119.91 7.484 -127.609 C 10.547 -135.305 13.211 -141.52 15.484 -146.25 C 17.766 -150.977 19.254 -153.344 19.953 -153.344 C 21.004 -153.344 23.629 -152.203 27.828 -149.922 C 32.035 -147.648 36.457 -144.895 41.094 -141.656 C 45.727 -138.414 49.883 -135 53.563 -131.406 C 57.238 -127.82 59.078 -124.719 59.078 -122.094 C 59.078 -121.57 58.988 -120.914 58.813 -120.125 C 58.633 -119.344 58.375 -118.336 58.031 -117.109 C 56.625 -112.734 54.828 -107.566 52.641 -101.609 C 50.453 -95.66 48.133 -89.488 45.688 -83.094 C 43.238 -76.707 40.785 -70.32 38.328 -63.937 C 35.879 -57.551 33.691 -51.555 31.766 -45.953 C 29.848 -40.348 28.273 -35.441 27.047 -31.234 C 25.816 -27.035 25.203 -23.977 25.203 -22.062 C 25.203 -21.008 25.727 -20.484 26.781 -20.484 C 28.707 -20.484 31.594 -21.617 35.438 -23.891 C 39.289 -26.172 43.711 -29.145 48.703 -32.812 C 53.691 -36.488 58.898 -40.516 64.328 -44.891 C 69.754 -49.273 74.961 -53.609 79.953 -57.891 C 84.941 -62.18 89.445 -66.078 93.469 -69.578 C 97.5 -73.078 100.566 -75.703 102.672 -77.453 C 104.242 -75.879 106.125 -73.867 108.313 -71.422 C 110.5 -68.973 112.555 -66.695 114.484 -64.594 C 110.629 -60.738 105.813 -56.055 100.031 -50.547 C 94.258 -45.035 88.004 -39.391 81.266 -33.609 C 74.523 -27.828 67.52 -22.047 60.25 -16.266 C 52.988 -10.492 45.945 -5.332 39.125 -0.781 C 32.301 3.77 25.91 7.441 19.953 10.234 C 14.004 13.035 8.926 14.438 4.719 14.438 Z"/>
      </g>
    </g>
  </g>
  <path fill="#ee1122" d="M 84.703125 -40.71875 C 84.753906 -39.164062 83.519531 -35.566406 81 -29.921875 C 78.476562 -24.285156 75.476562 -18.335938 72 -12.078125 C 68.519531 -5.828125 65.117188 -0.207031 61.796875 4.78125 C 58.472656 9.769531 55.9375 12.296875 54.1875 12.359375 C 52.632812 12.410156 49.140625 11.367188 43.703125 9.234375 C 38.273438 7.097656 32.539062 4.675781 26.5 1.96875 C 20.46875 -0.726562 15.066406 -3.453125 10.296875 -6.203125 C 5.523438 -8.960938 3.117188 -10.921875 3.078125 -12.078125 C 2.941406 -15.578125 4.070312 -20.628906 6.46875 -27.234375 C 8.875 -33.847656 11.710938 -40.328125 14.984375 -46.671875 C 18.253906 -53.023438 21.457031 -58.59375 24.59375 -63.375 C 27.726562 -68.164062 29.878906 -70.582031 31.046875 -70.625 C 32.984375 -70.695312 35.679688 -70.109375 39.140625 -68.859375 C 42.597656 -67.617188 46.304688 -66.050781 50.265625 -64.15625 C 54.234375 -62.257812 58.253906 -60.070312 62.328125 -57.59375 C 66.410156 -55.113281 70.097656 -52.757812 73.390625 -50.53125 C 76.679688 -48.3125 79.378906 -46.3125 81.484375 -44.53125 C 83.597656 -42.757812 84.671875 -41.488281 84.703125 -40.71875 Z M 84.703125 -40.71875 " transform="matrix(0.9999999999999999, 0, 0, 0.9999999999999999, 501.4514571120359, 37.43654895598684)"/>
</svg>